Love for All and Sharing is the first step to solving all the problems of humanity.

Website I want to share. 
               
   http://www.scenetime.com
 
 
  Credit to EVERYONE for sharing and seeding back
 especially to SCENETIME.COM where i get all my 
 downloads.


 support www.scenetime.com to grow faster.

                             
                                                            
                                                   

.                 ..................................NFO:....................................*******************************************************************************
                Maitresse.1975.Criterion.DVDRip.AC3.X264-BARC0DE
*******************************************************************************

-------------------------------------------------------------------------------
                              General Information
-------------------------------------------------------------------------------
Type.................: Movie
Name.................: Matresse
Movie Information....: http://www.imdb.com/title/tt0074883/
Genre................: Drama | Romance
-------------------------------------------------------------------------------
                                    PLOT
-------------------------------------------------------------------------------
A common thief (Depardieu) breaks into the house of a professional dominatrix (Ogier), 
and begins to help her "train" her clients. Though this world is alien to his 
experience, he finds himself falling in love with her. Eventually he discovers 
that she does this in order to support her son, and he attempts to help her out 
of this life, which she is not sure she really wants to leave.

-------------------------------------------------------------------------------
                                    CAST
-------------------------------------------------------------------------------
Grard Depardieu	... 	Olivier
Bulle Ogier	... 	Ariane
Andr Rouyer	... 	Mario
Nathalie Keryan	... 	Lucienne
Roland Bertin	... 	Man in Cage
Tony Taffin	... 	Emile
Holger Lwenadler	... 	Gautier
Anny Bartanovski	... 	Secretary
Serge Berry	... 	Valet
Richard Caron	... 	First Client
Pierre Devos	... 	Bistrot Patron

-------------------------------------------------------------------------------
                                    MEDiA iNFO
-------------------------------------------------------------------------------

General
Complete name                    : Maitresse.1975.Criterion.DVDRip.AC3.X264-BARC0DE.mkv
Format                           : Matroska
File size                        : 1.47 GiB
Duration                         : 1h 52mn
Overall bit rate                 : 1 865 Kbps

Video
ID                               : 1
Format                           : AVC
Format/Info                      : Advanced Video Codec
Format profile                   : High@L3.0
Format settings, CABAC           : Yes
Format settings, ReFrames        : 3 frames
Muxing mode                      : Container profile=Unknown@3.0
Codec ID                         : V_MPEG4/ISO/AVC
Duration                         : 1h 52mn
Bit rate                         : 1 658 Kbps
Width                            : 720 pixels
Height                           : 448 pixels
Display aspect ratio             : 1.607
Frame rate                       : 23.976 fps
Color space                      : YUV
Chroma subsampling               : 4:2:0
Bit depth                        : 8 bits
Scan type                        : Progressive
Bits/(Pixel*Frame)               : 0.214
Stream size                      : 1.29 GiB (88%)
Writing library                  : x264 core 79


Audio
ID                               : 2
Format                           : AC-3
Format/Info                      : Audio Coding 3
Mode extension                   : CM (complete main)
Codec ID                         : A_AC3
Duration                         : 1h 52mn
Bit rate mode                    : Constant
Bit rate                         : 192 Kbps
Channel(s)                       : 1 channel
Channel positions                : Front: C
Sampling rate                    : 48.0 KHz
Stream size                      : 155 MiB (10%)
Language                         : French

Text
ID                               : 3
Format                           : VobSub
Codec ID                         : S_VOBSUB
Codec ID/Info                    : The same subtitle format used on DVDs
Language                         : English